<?xml version="1.0" encoding="UTF-8" standalone="no"?>
<svg
   xmlns:dc="http://purl.org/dc/elements/1.1/"
   xmlns:cc="http://creativecommons.org/ns#"
   xmlns:rdf="http://www.w3.org/1999/02/22-rdf-syntax-ns#"
   xmlns:svg="http://www.w3.org/2000/svg"
   xmlns="http://www.w3.org/2000/svg"
   xmlns:sodipodi="http://sodipodi.sourceforge.net/DTD/sodipodi-0.dtd"
   xmlns:inkscape="http://www.inkscape.org/namespaces/inkscape"
   viewBox="0 0 48 48"
   id="svg2"
   version="1.1"
   inkscape:version="0.48.5 r10040"
   width="100%"
   height="100%"
   sodipodi:docname="pushbullet.svg">
  <metadata
     id="metadata61">
    <rdf:RDF>
      <cc:Work
         rdf:about="">
        <dc:format>image/svg+xml</dc:format>
        <dc:type
           rdf:resource="http://purl.org/dc/dcmitype/StillImage" />
        <dc:title />
      </cc:Work>
    </rdf:RDF>
  </metadata>
  <sodipodi:namedview
     pagecolor="#ffffff"
     bordercolor="#666666"
     borderopacity="1"
     objecttolerance="10"
     gridtolerance="10"
     guidetolerance="10"
     inkscape:pageopacity="0"
     inkscape:pageshadow="2"
     inkscape:window-width="960"
     inkscape:window-height="1028"
     id="namedview59"
     showgrid="false"
     inkscape:zoom="11.313709"
     inkscape:cx="25.66259"
     inkscape:cy="10.010412"
     inkscape:window-x="960"
     inkscape:window-y="24"
     inkscape:window-maximized="0"
     inkscape:current-layer="svg2" />
  <defs
     id="defs4">
    <linearGradient
       id="linearGradient3764"
       x1="1"
       x2="47"
       gradientUnits="userSpaceOnUse"
       gradientTransform="matrix(0,-1,1,0,-1.5e-6,47.999998)">
      <stop
         stop-color="#75b727"
         stop-opacity="1"
         id="stop7" />
      <stop
         offset="1"
         stop-color="#7fc82a"
         stop-opacity="1"
         id="stop9" />
    </linearGradient>
    <clipPath
       id="clipPath-995612660">
      <g
         transform="translate(0,-1004.3622)"
         id="g12">
        <path
           d="m -24 13 c 0 1.105 -0.672 2 -1.5 2 -0.828 0 -1.5 -0.895 -1.5 -2 0 -1.105 0.672 -2 1.5 -2 0.828 0 1.5 0.895 1.5 2 z"
           transform="matrix(15.333333,0,0,11.5,414.99999,878.8622)"
           fill="#1890d0"
           id="path14" />
      </g>
    </clipPath>
    <clipPath
       id="clipPath-001394911">
      <g
         transform="translate(0,-1004.3622)"
         id="g17">
        <path
           d="m -24 13 c 0 1.105 -0.672 2 -1.5 2 -0.828 0 -1.5 -0.895 -1.5 -2 0 -1.105 0.672 -2 1.5 -2 0.828 0 1.5 0.895 1.5 2 z"
           transform="matrix(15.333333,0,0,11.5,414.99999,878.8622)"
           fill="#1890d0"
           id="path19" />
      </g>
    </clipPath>
  </defs>
  <g
     id="g21">
    <path
       d="m 36.31 5 c 5.859 4.062 9.688 10.831 9.688 18.5 c 0 12.426 -10.07 22.5 -22.5 22.5 c -7.669 0 -14.438 -3.828 -18.5 -9.688 c 1.037 1.822 2.306 3.499 3.781 4.969 c 4.085 3.712 9.514 5.969 15.469 5.969 c 12.703 0 23 -10.298 23 -23 c 0 -5.954 -2.256 -11.384 -5.969 -15.469 c -1.469 -1.475 -3.147 -2.744 -4.969 -3.781 z m 4.969 3.781 c 3.854 4.113 6.219 9.637 6.219 15.719 c 0 12.703 -10.297 23 -23 23 c -6.081 0 -11.606 -2.364 -15.719 -6.219 c 4.16 4.144 9.883 6.719 16.219 6.719 c 12.703 0 23 -10.298 23 -23 c 0 -6.335 -2.575 -12.06 -6.719 -16.219 z"
       opacity="0.05"
       id="path23" />
    <path
       d="m 41.28 8.781 c 3.712 4.085 5.969 9.514 5.969 15.469 c 0 12.703 -10.297 23 -23 23 c -5.954 0 -11.384 -2.256 -15.469 -5.969 c 4.113 3.854 9.637 6.219 15.719 6.219 c 12.703 0 23 -10.298 23 -23 c 0 -6.081 -2.364 -11.606 -6.219 -15.719 z"
       opacity="0.1"
       id="path25" />
    <path
       d="m 31.25 2.375 c 8.615 3.154 14.75 11.417 14.75 21.13 c 0 12.426 -10.07 22.5 -22.5 22.5 c -9.708 0 -17.971 -6.135 -21.12 -14.75 a 23 23 0 0 0 44.875 -7 a 23 23 0 0 0 -16 -21.875 z"
       opacity="0.2"
       id="path27" />
  </g>
  <g
     id="g29">
    <path
       d="m 24 1 c 12.703 0 23 10.297 23 23 c 0 12.703 -10.297 23 -23 23 -12.703 0 -23 -10.297 -23 -23 0 -12.703 10.297 -23 23 -23 z"
       id="path31"
       fill-opacity="1"
       fill="url(#linearGradient3764)" />
  </g>
  <g
     id="g33" />
  <g
     id="g55">
    <path
       d="m 40.03 7.531 c 3.712 4.084 5.969 9.514 5.969 15.469 0 12.703 -10.297 23 -23 23 c -5.954 0 -11.384 -2.256 -15.469 -5.969 4.178 4.291 10.01 6.969 16.469 6.969 c 12.703 0 23 -10.298 23 -23 0 -6.462 -2.677 -12.291 -6.969 -16.469 z"
       opacity="0.1"
       id="path57" />
  </g>
  <g
     id="g3002"
     transform="matrix(0.84661992,0,0,0.84661992,3.7417209,3.7296412)">
    <g
       style="fill:#000000;fill-opacity:0.09804131"
       transform="matrix(1.6481817,0,0,1.6481817,5.0120024,3.5013822)"
       id="g3056">
      <path
         style="fill:#000000;fill-opacity:0.09804131"
         d="m 3.6031516,19.621837 -0.29979,-0.30302 -0.30302,-0.29981 0,-6.18614 c 0,-6.911485 -0.039,-6.541485 0.72531,-6.721265 0.52541,-0.12358 2.46225,-0.12138 2.91094,0.003 0.7272801,0.20197 0.7053201,-0.0288 0.6737401,6.863105 l -0.029,6.14746 -0.2901301,0.24823 c -0.27815,0.23921 -0.34827,0.24822 -1.83747,0.24822 l -1.55056,0 z m 5.2609701,0 -0.30302,-0.30302 -0.30303,-0.30625 0.0258,-6.18615 0.029,-6.186145 0.245,-0.26111 c 0.13464,-0.14328 0.36673,-0.2828 0.51578,-0.30947 0.14904,-0.0267 1.5937603,-0.0311 3.2107403,-0.0129 3.297649,0.037 3.608869,0.0828 5.003069,0.76722 3.03978,1.49221 4.475529,5.105375 3.307449,8.323414 -0.77144,2.125261 -2.52683,3.699001 -4.76454,4.271311 -0.70285,0.17976 -1.14926,0.20309 -3.881239,0.20309 l -3.0850193,0 z"
         id="path3075-4"
         inkscape:connector-curvature="0" />
    </g>
    <path
       style="fill:#ffffff;fill-opacity:1"
       d="m 10.160468,12.790933 -0.4941088,0.499432 -0.4994321,0.494141 0,10.195882 c 0,11.391391 -0.064279,10.781564 1.1954429,11.077874 0.865971,0.203682 4.058236,0.200056 4.797759,-0.0049 1.198689,-0.332883 1.162495,0.04747 1.110445,-11.311652 l -0.0478,-10.13213 -0.478187,-0.409128 c -0.458441,-0.394261 -0.574012,-0.409111 -3.028484,-0.409111 l -2.555605,0 z m 8.671035,0 -0.499432,0.499432 -0.499449,0.504756 0.04252,10.195897 0.0478,10.195899 0.403804,0.430357 c 0.221911,0.236152 0.604438,0.466106 0.850099,0.510063 0.245645,0.04401 2.626806,0.05126 5.291883,0.02126 5.435126,-0.06098 5.948074,-0.13647 8.245969,-1.264518 5.010109,-2.459434 7.376486,-8.414594 5.451278,-13.718507 C 36.894502,16.662757 34.0013,14.068948 30.313147,13.125677 29.154723,12.8294 28.418958,12.790948 23.916159,12.790948 l -5.084674,0 z"
       id="path3075"
       inkscape:connector-curvature="0" />
  </g>
</svg>
